<svg width="385" height="30" viewBox="0 0 385 30" fill="none" xmlns="http://www.w3.org/2000/svg">
<rect y="6.25" width="1.34447" height="17.5" rx="0.672236" fill="#92BAFD"/>
<rect x="3.57129" y="5" width="1.34447" height="20" rx="0.672236" fill="#92BAFD"/>
<rect x="7.14355" y="3.75" width="1.34447" height="22.5" rx="0.672236" fill="#92BAFD"/>
<rect x="10.7148" width="1.34447" height="30" rx="0.672236" fill="#92BAFD"/>
<rect x="14.3809" y="1.25" width="1.34447" height="27.5" rx="0.672236" fill="#92BAFD"/>
<rect x="17.9531" width="1.34447" height="30" rx="0.672236" fill="#92BAFD"/>
<rect x="21.5244" y="1.25" width="1.34447" height="27.5" rx="0.672236" fill="#92BAFD"/>
<rect x="25.0967" width="1.34447" height="30" rx="0.672236" fill="#92BAFD"/>
<rect x="28.668" y="3.75" width="1.34447" height="22.5" rx="0.672236" fill="#92BAFD"/>
<rect x="32.2402" y="6.25" width="1.34447" height="17.5" rx="0.672236" fill="#92BAFD"/>
<rect x="35.8115" y="7.5" width="1.34447" height="15" rx="0.672236" fill="#92BAFD"/>
<rect x="39.4727" y="1.25" width="1.34447" height="27.5" rx="0.672236" fill="#92BAFD"/>
<rect x="43.0439" width="1.34447" height="30" rx="0.672236" fill="#92BAFD"/>
<rect x="46.6162" width="1.34447" height="30" rx="0.672236" fill="#92BAFD"/>
<rect x="50.1875" y="2.5" width="1.34447" height="25" rx="0.672236" fill="#92BAFD"/>
<rect x="53.7598" y="1.25" width="1.34447" height="27.5" rx="0.672236" fill="#92BAFD"/>
<rect x="57.3311" width="1.34447" height="30" rx="0.672236" fill="#92BAFD"/>
<rect x="60.9033" y="6.25" width="1.34447" height="17.5" rx="0.672236" fill="#92BAFD"/>
<rect x="64.5693" y="7.5" width="1.34447" height="15" rx="0.672236" fill="#92BAFD"/>
<rect x="68.1416" y="5" width="1.34447" height="20" rx="0.672236" fill="#92BAFD"/>
<rect x="71.7129" width="1.34447" height="30" rx="0.672236" fill="#92BAFD"/>
<rect x="75.2852" y="8.75" width="1.34447" height="12.5" rx="0.672236" fill="#92BAFD"/>
<rect x="78.8564" y="8.75" width="1.34447" height="12.5" rx="0.672236" fill="#92BAFD"/>
<rect x="82.4287" width="1.34447" height="30" rx="0.672236" fill="#92BAFD"/>
<rect x="86.0938" y="1.25" width="1.34447" height="27.5" rx="0.672236" fill="#92BAFD"/>
<rect x="89.665" y="3.75" width="1.34447" height="22.5" rx="0.672236" fill="#92BAFD"/>
<rect x="93.2373" y="5" width="1.34447" height="20" rx="0.672236" fill="#92BAFD"/>
<rect x="96.8086" y="6.25" width="1.34447" height="17.5" rx="0.672236" fill="#92BAFD"/>
<rect x="100.381" width="1.34447" height="30" rx="0.672236" fill="#92BAFD"/>
<rect x="103.952" y="2.5" width="1.34447" height="25" rx="0.672236" fill="#92BAFD"/>
<rect x="107.524" y="6.25" width="1.34447" height="17.5" rx="0.672236" fill="#92BAFD"/>
<rect x="111.189" y="1.25" width="1.34447" height="27.5" rx="0.672236" fill="#92BAFD"/>
<rect x="114.754" width="1.34447" height="30" rx="0.672236" fill="#92BAFD"/>
<rect x="118.325" y="6.25" width="1.34447" height="17.5" rx="0.672236" fill="#92BAFD"/>
<rect x="121.897" y="3.75" width="1.34447" height="22.5" rx="0.672236" fill="#92BAFD"/>
<rect x="125.469" width="1.34447" height="30" rx="0.672236" fill="#92BAFD"/>
<rect x="129.041" width="1.34447" height="30" rx="0.672236" fill="#92BAFD"/>
<rect x="132.612" y="6.25" width="1.34447" height="17.5" rx="0.672236" fill="#92BAFD"/>
<rect x="136.279" width="1.34447" height="30" rx="0.672236" fill="#92BAFD"/>
<rect x="139.851" y="2.5" width="1.34447" height="25" rx="0.672236" fill="#92BAFD"/>
<rect x="143.423" y="5" width="1.34447" height="20" rx="0.672236" fill="#92BAFD"/>
<rect x="146.994" y="3.75" width="1.34447" height="22.5" rx="0.672236" fill="#92BAFD"/>
<rect x="150.566" y="7.5" width="1.34447" height="15" rx="0.672236" fill="#92BAFD"/>
<rect x="154.137" y="6.25" width="1.34447" height="17.5" rx="0.672236" fill="#92BAFD"/>
<rect x="157.709" width="1.34447" height="30" rx="0.672236" fill="#92BAFD"/>
<rect x="161.375" y="7.5" width="1.34447" height="15" rx="0.672236" fill="#92BAFD"/>
<rect x="164.946" y="6.25" width="1.34447" height="17.5" rx="0.672236" fill="#92BAFD"/>
<rect x="168.519" width="1.34447" height="30" rx="0.672236" fill="#92BAFD"/>
<rect x="172.09" y="1.25" width="1.34447" height="27.5" rx="0.672236" fill="#92BAFD"/>
<rect x="175.662" y="5" width="1.34447" height="20" rx="0.672236" fill="#92BAFD"/>
<rect x="179.233" width="1.34447" height="30" rx="0.672236" fill="#92BAFD"/>
<rect x="182.806" y="1.25" width="1.34447" height="27.5" rx="0.672236" fill="#92BAFD"/>
<rect x="186.469" y="2.5" width="1.34447" height="25" rx="0.672236" fill="#92BAFD"/>
<rect x="190.04" y="3.75" width="1.34447" height="22.5" rx="0.672236" fill="#92BAFD"/>
<rect x="193.612" width="1.34447" height="30" rx="0.672236" fill="#92BAFD"/>
<rect x="197.184" y="5" width="1.34447" height="20" rx="0.672236" fill="#92BAFD"/>
<rect x="200.756" width="1.34447" height="30" rx="0.672236" fill="#92BAFD"/>
<rect x="204.327" y="1.25" width="1.34447" height="27.5" rx="0.672236" fill="#92BAFD"/>
<rect x="207.993" y="3.75" width="1.34447" height="22.5" rx="0.672236" fill="#92BAFD"/>
<rect x="211.564" width="1.34447" height="30" rx="0.672236" fill="#92BAFD"/>
<rect x="215.137" y="1.25" width="1.34447" height="27.5" rx="0.672236" fill="#92BAFD"/>
<rect x="218.708" y="6.25" width="1.34447" height="17.5" rx="0.672236" fill="#92BAFD"/>
<rect x="222.28" y="8.75" width="1.34447" height="12.5" rx="0.672236" fill="#92BAFD"/>
<rect x="225.852" y="10" width="1.34447" height="10" rx="0.672236" fill="#92BAFD"/>
<rect x="229.424" y="2.5" width="1.34447" height="25" rx="0.672236" fill="#92BAFD"/>
<rect x="233.089" y="5" width="1.34447" height="20" rx="0.672236" fill="#92BAFD"/>
<rect x="236.661" width="1.34447" height="30" rx="0.672236" fill="#92BAFD"/>
<rect x="240.232" y="5" width="1.34447" height="20" rx="0.672236" fill="#92BAFD"/>
<rect x="243.805" y="1.25" width="1.34447" height="27.5" rx="0.672236" fill="#92BAFD"/>
<rect x="247.376" width="1.34447" height="30" rx="0.672236" fill="#92BAFD"/>
<rect x="250.948" y="3.75" width="1.34447" height="22.5" rx="0.672236" fill="#92BAFD"/>
<rect x="254.52" y="6.25" width="1.34447" height="17.5" rx="0.672236" fill="#92BAFD"/>
<rect x="258.186" y="7.5" width="1.34447" height="15" rx="0.672236" fill="#92BAFD"/>
<rect x="261.75" y="7.5" width="1.34447" height="15" rx="0.672236" fill="#92BAFD"/>
<rect x="265.321" width="1.34447" height="30" rx="0.672236" fill="#92BAFD"/>
<rect x="268.893" y="1.25" width="1.34447" height="27.5" rx="0.672236" fill="#92BAFD"/>
<rect x="272.465" y="5" width="1.34447" height="20" rx="0.672236" fill="#92BAFD"/>
<rect x="276.036" y="6.25" width="1.34447" height="17.5" rx="0.672236" fill="#92BAFD"/>
<rect x="279.608" width="1.34447" height="30" rx="0.672236" fill="#92BAFD"/>
<rect x="283.275" width="1.34447" height="30" rx="0.672236" fill="#92BAFD"/>
<rect x="286.847" y="3.75" width="1.34447" height="22.5" rx="0.672236" fill="#92BAFD"/>
<rect x="290.419" y="2.5" width="1.34447" height="25" rx="0.672236" fill="#92BAFD"/>
<rect x="293.99" y="6.25" width="1.34447" height="17.5" rx="0.672236" fill="#92BAFD"/>
<rect x="297.562" y="7.5" width="1.34447" height="15" rx="0.672236" fill="#92BAFD"/>
<rect x="301.134" y="1.25" width="1.34447" height="27.5" rx="0.672236" fill="#92BAFD"/>
<rect x="304.706" width="1.34447" height="30" rx="0.672236" fill="#92BAFD"/>
<rect x="308.369" width="1.34447" height="30" rx="0.672236" fill="#92BAFD"/>
<rect x="311.942" y="5" width="1.34447" height="20" rx="0.672236" fill="#92BAFD"/>
<rect x="315.514" width="1.34447" height="30" rx="0.672236" fill="#92BAFD"/>
<rect x="319.086" y="6.25" width="1.34447" height="17.5" rx="0.672236" fill="#92BAFD"/>
<rect x="322.657" y="5" width="1.34447" height="20" rx="0.672236" fill="#92BAFD"/>
<rect x="326.229" y="2.5" width="1.34447" height="25" rx="0.672236" fill="#92BAFD"/>
<rect x="329.8" y="1.25" width="1.34447" height="27.5" rx="0.672236" fill="#92BAFD"/>
<rect x="333.466" y="7.5" width="1.34447" height="15" rx="0.672236" fill="#92BAFD"/>
<rect x="337.034" width="1.34447" height="30" rx="0.672236" fill="#92BAFD"/>
<rect x="340.606" y="6.25" width="1.34447" height="17.5" rx="0.672236" fill="#92BAFD"/>
<rect x="344.178" y="3.75" width="1.34447" height="22.5" rx="0.672236" fill="#92BAFD"/>
<rect x="347.75" y="1.25" width="1.34447" height="27.5" rx="0.672236" fill="#92BAFD"/>
<rect x="351.321" width="1.34447" height="30" rx="0.672236" fill="#92BAFD"/>
<rect x="354.987" width="1.34447" height="30" rx="0.672236" fill="#92BAFD"/>
<rect x="358.56" y="7.5" width="1.34447" height="15" rx="0.672236" fill="#92BAFD"/>
<rect x="362.131" y="5" width="1.34447" height="20" rx="0.672236" fill="#92BAFD"/>
<rect x="365.703" y="2.5" width="1.34447" height="25" rx="0.672236" fill="#92BAFD"/>
<rect x="369.274" width="1.34447" height="30" rx="0.672236" fill="#92BAFD"/>
<rect x="372.847" width="1.34447" height="30" rx="0.672236" fill="#92BAFD"/>
<rect x="376.418" y="1.25" width="1.34447" height="27.5" rx="0.672236" fill="#92BAFD"/>
<rect x="380.084" y="3.75" width="1.34447" height="22.5" rx="0.672236" fill="#92BAFD"/>
<rect x="383.655" y="6.25" width="1.34447" height="17.5" rx="0.672236" fill="#92BAFD"/>
</svg>
